# Blender v2.79 (sub 0) OBJ File: ''
# www.blender.org
o Cube
v 1.000000 1.000000 -1.000000
v 1.000000 -1.000000 -1.000000
v -1.000000 -1.000000 -1.000000
v -1.000000 1.000000 -1.000000
v 1.000000 0.999999 1.000000
v 0.999999 -1.000001 1.000000
v -1.000000 -1.000000 1.000000
v -1.000000 1.000000 1.000000
vt 0.500588 0.249998
vt 0.750542 0.000100
vt 0.750728 0.250133
vt 0.500588 0.249998
vt 0.750506 0.500144
vt 0.500549 0.500212
vt 0.250491 0.750359
vt 0.250473 0.500282
vt 0.750578 0.750200
vt 0.500549 0.500212
vt 0.750506 0.500144
vt 0.000451 0.500156
vt 0.250491 0.750359
vt 0.000284 0.750561
vt 0.500656 0.000202
vt 0.750728 0.250133
vt 0.500590 0.750296
vt 0.500590 0.750296
vt 0.250473 0.500282
vt 0.250570 0.250133
vn 0.0000 0.0000 -1.0000
vn 0.0000 0.0000 1.0000
vn 1.0000 0.0000 -0.0000
vn -0.0000 -1.0000 -0.0000
vn -1.0000 0.0000 -0.0000
vn 0.0000 1.0000 0.0000
s off
f 2/1/1 4/2/1 1/3/1
f 8/4/2 6/5/2 5/6/2
f 5/6/3 2/7/3 1/8/3
f 6/9/4 3/10/4 2/11/4
f 3/12/5 8/13/5 4/14/5
f 1/8/6 8/4/6 5/6/6
f 2/1/1 3/15/1 4/2/1
f 8/4/2 7/16/2 6/5/2
f 5/6/3 6/17/3 2/7/3
f 6/9/4 7/18/4 3/10/4
f 3/12/5 7/19/5 8/13/5
f 1/8/6 4/20/6 8/4/6
